<svg xmlns="http://www.w3.org/2000/svg" viewBox="0 0 64 64" fill="none">
  <defs>
    <linearGradient id="grad" x1="6" y1="6" x2="58" y2="58" gradientUnits="userSpaceOnUse">
      <stop offset="0" stop-color="#6366F1" />
      <stop offset="0.5" stop-color="#8B5CF6" />
      <stop offset="1" stop-color="#EC4899" />
    </linearGradient>
    <linearGradient id="glow" x1="32" y1="6" x2="32" y2="58" gradientUnits="userSpaceOnUse">
      <stop offset="0" stop-color="#FFFFFF" stop-opacity="0.9" />
      <stop offset="1" stop-color="#FFFFFF" stop-opacity="0.1" />
    </linearGradient>
  </defs>
  <rect x="6" y="6" width="52" height="52" rx="16" fill="url(#grad)" />
  <path
    fill="url(#glow)"
    d="M30 16c-1.105 0-2 .895-2 2v10h-10c-1.105 0-2 .895-2 2v4c0 1.105.895 2 2 2h10v10c0 1.105.895 2 2 2h4c1.105 0 2-.895 2-2V36h10c1.105 0 2-.895 2-2v-4c0-1.105-.895-2-2-2H36V18c0-1.105-.895-2-2-2h-4Z"
  />
</svg>
